# xmcd
#
# Track frame offsets: 
#        150
#        16081
#        42268
#        60522
#        88436
#        117192
#        129204
#        161636
#        180339
#        196864
#        205456
#
# Disc length: 2973 seconds
#
# Revision: 0
# Processed by: cddbd v1.5.2PL0 Copyright (c) Steve Scherf et al.
# Submitted via: ExactAudioCopy v0.95b3
#
DISCID=8b0b9b0b
DTITLE=Nathan Haines - Right Now
DYEAR=2007
DGENRE=Funk
TTITLE0=Gitmo Ritmo
TTITLE1=Tell Me What You're Feeling
TTITLE2=Pick It Up
TTITLE3=Creation Calling
TTITLE4=Right Now
TTITLE5=Sign Wave
TTITLE6=Home
TTITLE7=Talkin' Around
TTITLE8=Today
TTITLE9=You Are Here
TTITLE10=Hold On
EXTD=
EXTT0=
EXTT1=
EXTT2=
EXTT3=
EXTT4=
EXTT5=
EXTT6=
EXTT7=
EXTT8=
EXTT9=
EXTT10=
PLAYORDER=
